<svg version="1.2" xmlns="http://www.w3.org/2000/svg" viewBox="0 0 234 234" width="234" height="234">
	<title>logo_Live_in_Serbia-svg</title>
	<style>
		.s0 { fill: #ffffff } 
		.s1 { fill: #0d1131 } 
		.s2 { fill: #b72e3e } 
		.s3 { fill: none;stroke: #ffffff;stroke-width: 2 } 
	</style>
	<path id="Layer" class="s0" d="m-107.5-107.5h450v450h-450z"/>
	<path id="Layer" class="s0" d="m-107.5-107.5h450v450h-450z"/>
	<path id="Layer" class="s1" d="m-107.5-107.5h450v450h-450z"/>
	<g id="Layer">
		<g id="Layer">
			<g id="Layer">
				<path id="Layer" class="s0" d="m25.6 157.6q-3.8 0-6.6-1-2.8-1-4.6-2.2-2.2-1.4-3.7-3.2l5.8-6.5q1 1.2 2.2 2.1 1.1 0.7 2.6 1.3 1.4 0.6 3.3 0.6 2.4 0 3.6-0.9 1.2-1 1.2-2.3 0-1.2-1.3-2-1.3-0.8-3.3-1.5-1.9-0.6-4.2-1.5-2.3-0.8-4.3-2.2-1.9-1.3-3.3-3.4-1.3-2.1-1.3-5.4 0-2.2 1-4.3 1-2.1 2.8-3.7 1.8-1.6 4.5-2.5 2.6-1 5.9-1 3.4 0 5.9 0.8 2.4 0.9 4.1 1.9 1.8 1.1 3.1 2.6l-5.9 6.4q-0.7-0.7-1.6-1.4-0.8-0.6-2-1-1.1-0.5-2.5-0.5-2.3 0-3.3 0.8-1 0.9-1 1.9 0 1.3 1.3 2.1 1.3 0.7 3.3 1.4 1.9 0.7 4.2 1.5 2.3 0.8 4.3 2.2 1.9 1.3 3.2 3.5 1.3 2.1 1.3 5.3 0 2.4-1 4.6-1 2.2-2.9 3.9-1.9 1.6-4.6 2.6-2.7 1-6.2 1z"/>
			</g>
		</g>
	</g>
	<g id="Layer">
		<g id="Layer">
			<g id="Layer">
				<path id="Layer" class="s0" d="m46.2 119.1h28.6v9.1h-18.4v5.3h14.2v8.6h-14.2v5.3h19v9.1h-29.2z"/>
			</g>
		</g>
	</g>
	<g id="Layer">
		<g id="Layer">
			<g id="Layer">
				<path id="Layer" fill-rule="evenodd" class="s0" d="m81.8 119.1h17.6q3 0 5.5 1 2.6 0.9 4.3 2.7 1.8 1.7 2.8 4 1.1 2.4 1.1 5.1 0 3.1-1 5.1-1 2-2.2 3.2-1.4 1.5-3.2 2.4l7.7 13.9h-10.7l-6.1-11.8h-5.7v11.8h-10.1zm17.1 16.6q1.8 0 2.9-1.1 1.1-1.1 1.1-2.7 0-1.6-1.1-2.6-1.1-1.1-2.9-1.1h-7v7.5z"/>
			</g>
		</g>
	</g>
	<g id="Layer">
		<g id="Layer">
			<g id="Layer">
				<path id="Layer" fill-rule="evenodd" class="s0" d="m120 119.1h16.6q3.2 0 5.7 0.8 2.4 0.8 4 2.1 1.7 1.3 2.5 3.2 0.9 1.8 0.9 3.8 0 2.3-0.9 3.8-0.9 1.5-1.9 2.4-1.3 1-2.8 1.5 2.1 0.7 3.7 2 1.4 1.1 2.6 2.9 1.2 1.7 1.2 4.5 0 2.1-0.9 4-0.9 1.9-2.6 3.3-1.8 1.4-4.3 2.3-2.6 0.8-5.9 0.8h-17.9zm17.1 29.4q1.9 0 2.9-1 1.1-1.1 1.1-2.7 0-1.6-1.1-2.7-1-1.1-2.9-1.1h-6.9v7.5zm-1.4-15q1.7 0 2.6-0.9 0.9-0.9 0.9-2.3 0-1.4-0.9-2.3-1-0.9-2.6-0.9h-5.6v6.4z"/>
			</g>
		</g>
	</g>
	<g id="Layer">
		<g id="Layer">
			<g id="Layer">
				<path id="Layer" class="s0" d="m157.7 119.1h10.2v37.4h-10.2z"/>
			</g>
		</g>
	</g>
	<g id="Layer">
		<g id="Layer">
			<g id="Layer">
				<path id="Layer" fill-rule="evenodd" class="s0" d="m186.1 119.1h11.2l14.2 37.4h-11l-2.7-8h-12.3l-2.6 8h-11zm9.1 21.1l-3.4-10.7h-0.2l-3.4 10.7z"/>
			</g>
		</g>
	</g>
	<g id="Layer">
		<g id="Layer">
			<g id="Layer">
				<path id="Layer" class="s2" d="m218.4 157q-2.3 0-3.7-1.4-1.4-1.3-1.4-3.4 0-2 1.4-3.4 1.4-1.4 3.7-1.4 2.2 0 3.7 1.4 1.4 1.4 1.4 3.4 0 2.1-1.4 3.4-1.5 1.4-3.7 1.4z"/>
			</g>
		</g>
	</g>
	<path id="Layer" class="s3" d="m13.6 73.3h10.2v27.8h16.3v9.7h-26.5zm31.8 0h10.2v37.4h-10.2zm14.5 0h10.9l7.9 26.2h0.2l8-26.2h10.9l-13.3 37.4h-11.3zm42.3 0h28.6v9.1h-18.5v5.4h14.2v8.5h-14.2v5.4h19v9.1h-29.1zm47.3 0h10.2v37.4h-10.2zm18.7 0h8.8l16.1 20.6v-20.6h10.1v37.4h-8.8l-16-20.6v20.6h-10.2z"/>
</svg>