<svg xmlns="http://www.w3.org/2000/svg" xmlns:xlink="http://www.w3.org/1999/xlink" zoomAndPan="magnify" preserveAspectRatio="xMidYMid meet" version="1.0" viewBox="80.67 141.98 212.81 85.58"><defs><g/></defs><g fill="#ffffff" fill-opacity="1"><g transform="translate(79.324218, 226.499985)"><g><path d="M 16.3125 1.0625 C 13.75 1.0625 11.539062 0.734375 9.6875 0.078125 C 7.832031 -0.578125 6.28125 -1.316406 5.03125 -2.140625 C 3.601562 -3.066406 2.375 -4.132812 1.34375 -5.34375 L 7.21875 -11.765625 C 7.863281 -11.015625 8.59375 -10.335938 9.40625 -9.734375 C 10.125 -9.234375 10.972656 -8.773438 11.953125 -8.359375 C 12.929688 -7.953125 14.03125 -7.75 15.25 -7.75 C 16.851562 -7.75 18.054688 -8.078125 18.859375 -8.734375 C 19.660156 -9.398438 20.0625 -10.144531 20.0625 -10.96875 C 20.0625 -11.820312 19.625 -12.503906 18.75 -13.015625 C 17.875 -13.535156 16.785156 -14.019531 15.484375 -14.46875 C 14.179688 -14.914062 12.765625 -15.414062 11.234375 -15.96875 C 9.703125 -16.519531 8.285156 -17.25 6.984375 -18.15625 C 5.679688 -19.0625 4.59375 -20.21875 3.71875 -21.625 C 2.84375 -23.039062 2.40625 -24.835938 2.40625 -27.015625 C 2.40625 -28.472656 2.722656 -29.894531 3.359375 -31.28125 C 4.003906 -32.675781 4.941406 -33.90625 6.171875 -34.96875 C 7.398438 -36.039062 8.890625 -36.898438 10.640625 -37.546875 C 12.390625 -38.191406 14.367188 -38.515625 16.578125 -38.515625 C 18.859375 -38.515625 20.816406 -38.234375 22.453125 -37.671875 C 24.097656 -37.117188 25.457031 -36.503906 26.53125 -35.828125 C 27.78125 -35.046875 28.832031 -34.15625 29.6875 -33.15625 L 23.796875 -26.75 C 23.335938 -27.28125 22.785156 -27.757812 22.140625 -28.1875 C 21.609375 -28.582031 20.957031 -28.929688 20.1875 -29.234375 C 19.425781 -29.535156 18.582031 -29.6875 17.65625 -29.6875 C 16.15625 -29.6875 15.066406 -29.410156 14.390625 -28.859375 C 13.710938 -28.304688 13.375 -27.691406 13.375 -27.015625 C 13.375 -26.148438 13.804688 -25.457031 14.671875 -24.9375 C 15.546875 -24.425781 16.632812 -23.945312 17.9375 -23.5 C 19.238281 -23.0625 20.65625 -22.566406 22.1875 -22.015625 C 23.726562 -21.460938 25.148438 -20.726562 26.453125 -19.8125 C 27.753906 -18.90625 28.835938 -17.75 29.703125 -16.34375 C 30.578125 -14.9375 31.015625 -13.144531 31.015625 -10.96875 C 31.015625 -9.363281 30.675781 -7.828125 30 -6.359375 C 29.320312 -4.898438 28.347656 -3.625 27.078125 -2.53125 C 25.816406 -1.445312 24.273438 -0.578125 22.453125 0.078125 C 20.640625 0.734375 18.59375 1.0625 16.3125 1.0625 Z M 16.3125 1.0625 "/></g></g></g><g fill="#ffffff" fill-opacity="1"><g transform="translate(111.942568, 226.499985)"><g><path d="M 4.28125 -37.4375 L 32.890625 -37.4375 L 32.890625 -28.34375 L 14.4375 -28.34375 L 14.4375 -23 L 28.609375 -23 L 28.609375 -14.4375 L 14.4375 -14.4375 L 14.4375 -9.09375 L 33.421875 -9.09375 L 33.421875 0 L 4.28125 0 Z M 4.28125 -37.4375 "/></g></g></g><g fill="#ffffff" fill-opacity="1"><g transform="translate(147.50191, 226.499985)"><g><path d="M 4.28125 -37.4375 L 21.921875 -37.4375 C 23.921875 -37.4375 25.757812 -37.101562 27.4375 -36.4375 C 29.113281 -35.78125 30.546875 -34.875 31.734375 -33.71875 C 32.929688 -32.5625 33.867188 -31.207031 34.546875 -29.65625 C 35.222656 -28.101562 35.5625 -26.421875 35.5625 -24.609375 C 35.5625 -22.566406 35.234375 -20.867188 34.578125 -19.515625 C 33.921875 -18.160156 33.179688 -17.078125 32.359375 -16.265625 C 31.429688 -15.296875 30.363281 -14.507812 29.15625 -13.90625 L 36.90625 0 L 26.203125 0 L 20.0625 -11.765625 L 14.4375 -11.765625 L 14.4375 0 L 4.28125 0 Z M 21.390625 -20.859375 C 22.609375 -20.859375 23.582031 -21.210938 24.3125 -21.921875 C 25.039062 -22.640625 25.40625 -23.535156 25.40625 -24.609375 C 25.40625 -25.671875 25.039062 -26.554688 24.3125 -27.265625 C 23.582031 -27.984375 22.609375 -28.34375 21.390625 -28.34375 L 14.4375 -28.34375 L 14.4375 -20.859375 Z M 21.390625 -20.859375 "/></g></g></g><g fill="#ffffff" fill-opacity="1"><g transform="translate(185.73489, 226.499985)"><g><path d="M 4.28125 -37.4375 L 20.859375 -37.4375 C 22.992188 -37.4375 24.878906 -37.164062 26.515625 -36.625 C 28.160156 -36.09375 29.523438 -35.378906 30.609375 -34.484375 C 31.703125 -33.597656 32.535156 -32.546875 33.109375 -31.328125 C 33.679688 -30.117188 33.96875 -28.859375 33.96875 -27.546875 C 33.96875 -25.972656 33.671875 -24.695312 33.078125 -23.71875 C 32.492188 -22.738281 31.84375 -21.945312 31.125 -21.34375 C 30.300781 -20.664062 29.375 -20.148438 28.34375 -19.796875 C 29.738281 -19.328125 30.988281 -18.664062 32.09375 -17.8125 C 33.019531 -17.09375 33.875 -16.132812 34.65625 -14.9375 C 35.4375 -13.75 35.828125 -12.242188 35.828125 -10.421875 C 35.828125 -9.035156 35.53125 -7.707031 34.9375 -6.4375 C 34.351562 -5.175781 33.484375 -4.0625 32.328125 -3.09375 C 31.171875 -2.132812 29.742188 -1.378906 28.046875 -0.828125 C 26.359375 -0.273438 24.410156 0 22.203125 0 L 4.28125 0 Z M 21.390625 -8.015625 C 22.609375 -8.015625 23.582031 -8.367188 24.3125 -9.078125 C 25.039062 -9.796875 25.40625 -10.691406 25.40625 -11.765625 C 25.40625 -12.835938 25.039062 -13.726562 24.3125 -14.4375 C 23.582031 -15.15625 22.609375 -15.515625 21.390625 -15.515625 L 14.4375 -15.515625 L 14.4375 -8.015625 Z M 20.0625 -23 C 21.164062 -23 22.019531 -23.300781 22.625 -23.90625 C 23.226562 -24.507812 23.53125 -25.273438 23.53125 -26.203125 C 23.53125 -27.128906 23.21875 -27.894531 22.59375 -28.5 C 21.96875 -29.113281 21.125 -29.421875 20.0625 -29.421875 L 14.4375 -29.421875 L 14.4375 -23 Z M 20.0625 -23 "/></g></g></g><g fill="#ffffff" fill-opacity="1"><g transform="translate(223.433145, 226.499985)"><g><path d="M 4.28125 -37.4375 L 14.4375 -37.4375 L 14.4375 0 L 4.28125 0 Z M 4.28125 -37.4375 "/></g></g></g><g fill="#ffffff" fill-opacity="1"><g transform="translate(242.148582, 226.499985)"><g><path d="M 13.90625 -37.4375 L 25.140625 -37.4375 L 39.3125 0 L 28.34375 0 L 25.671875 -8.015625 L 13.375 -8.015625 L 10.703125 0 L -0.265625 0 Z M 23 -16.3125 L 19.625 -27.015625 L 19.421875 -27.015625 L 16.046875 -16.3125 Z M 23 -16.3125 "/></g></g></g><g fill="#b72e3e" fill-opacity="1"><g transform="translate(281.179678, 226.499985)"><g><path d="M 7.21875 0.53125 C 5.71875 0.53125 4.492188 0.0664062 3.546875 -0.859375 C 2.609375 -1.785156 2.140625 -2.925781 2.140625 -4.28125 C 2.140625 -5.632812 2.609375 -6.773438 3.546875 -7.703125 C 4.492188 -8.628906 5.71875 -9.09375 7.21875 -9.09375 C 8.71875 -9.09375 9.9375 -8.628906 10.875 -7.703125 C 11.820312 -6.773438 12.296875 -5.632812 12.296875 -4.28125 C 12.296875 -2.925781 11.820312 -1.785156 10.875 -0.859375 C 9.9375 0.0664062 8.71875 0.53125 7.21875 0.53125 Z M 7.21875 0.53125 "/></g></g></g><path stroke-linecap="butt" transform="matrix(0.75, 0, 0, 0.75, 79.324218, 141.749991)" fill="none" stroke-linejoin="miter" d="M 5.708334 2.088554 L 19.25521 2.088554 L 19.25521 39.166682 L 41.000003 39.166682 L 41.000003 52.000016 L 5.708334 52.000016 Z M 48.130212 2.088554 L 61.677088 2.088554 L 61.677088 52.000016 L 48.130212 52.000016 Z M 67.375005 2.088554 L 82.000006 2.088554 L 92.55209 37.026057 L 92.828131 37.026057 L 103.380215 2.088554 L 118.005216 2.088554 L 100.17709 52.000016 L 85.203131 52.000016 Z M 123.708342 2.088554 L 161.848969 2.088554 L 161.848969 14.203138 L 137.250009 14.203138 L 137.250009 21.343764 L 156.140636 21.343764 L 156.140636 32.744806 L 137.250009 32.744806 L 137.250009 39.885432 L 162.567719 39.885432 L 162.567719 52.000016 L 123.708342 52.000016 Z M 186.802096 2.088554 L 200.348972 2.088554 L 200.348972 52.000016 L 186.802096 52.000016 Z M 211.760431 2.088554 L 223.526057 2.088554 L 244.906266 29.541681 L 244.906266 2.088554 L 258.468767 2.088554 L 258.468767 52.000016 L 246.697933 52.000016 L 225.302098 24.546889 L 225.302098 52.000016 L 211.760431 52.000016 Z M 211.760431 2.088554 " stroke="#ffffff" stroke-width="2.674324" stroke-opacity="1" stroke-miterlimit="4"/></svg>